<svg width="24" height="6" viewBox="0 0 24 6" fill="none" xmlns="http://www.w3.org/2000/svg">
<path d="M14.6667 2.66667C14.6667 2.13925 14.5103 1.62368 14.2173 1.18515C13.9242 0.746616 13.5078 0.404822 13.0205 0.202989C12.5332 0.00115491 11.997 -0.051654 11.4798 0.0512399C10.9625 0.154134 10.4873 0.408109 10.1144 0.781049C9.74144 1.15399 9.48747 1.62914 9.38457 2.14643C9.28168 2.66371 9.33449 3.19989 9.53632 3.68716C9.73815 4.17443 10.0799 4.5909 10.5185 4.88392C10.957 5.17694 11.4726 5.33333 12 5.33333C12.7072 5.33333 13.3855 5.05238 13.8856 4.55229C14.3857 4.05219 14.6667 3.37391 14.6667 2.66667ZM5.33333 2.66667C5.33333 2.13925 5.17694 1.62368 4.88392 1.18515C4.5909 0.746616 4.17443 0.404822 3.68716 0.202988C3.19989 0.00115451 2.66371 -0.0516544 2.14643 0.0512395C1.62914 0.154133 1.15399 0.408109 0.781048 0.781049C0.408108 1.15399 0.154133 1.62914 0.0512389 2.14643C-0.0516549 2.66371 0.00115381 3.19989 0.202988 3.68716C0.404821 4.17443 0.746612 4.5909 1.18514 4.88392C1.62368 5.17694 2.13925 5.33333 2.66667 5.33333C3.37391 5.33333 4.05219 5.05238 4.55228 4.55228C5.05238 4.05219 5.33333 3.37391 5.33333 2.66667ZM24 2.66667C24 2.13925 23.8436 1.62368 23.5506 1.18515C23.2576 0.746617 22.8411 0.404823 22.3538 0.202989C21.8666 0.00115532 21.3304 -0.0516536 20.8131 0.0512403C20.2958 0.154134 19.8207 0.40811 19.4477 0.78105C19.0748 1.15399 18.8208 1.62914 18.7179 2.14643C18.615 2.66371 18.6678 3.19989 18.8697 3.68716C19.0715 4.17443 19.4133 4.5909 19.8518 4.88392C20.2903 5.17694 20.8059 5.33333 21.3333 5.33333C22.0406 5.33333 22.7189 5.05238 23.219 4.55229C23.719 4.05219 24 3.37391 24 2.66667Z" fill="black" fill-opacity="0.5"/>
</svg>
