<svg width="48" height="48" viewBox="0 0 48 48" fill="none" xmlns="http://www.w3.org/2000/svg">
<path d="M36.5259 47.5L6.67379 47.5C6.67344 47.5 6.6731 47.5 6.67275 47.5C5.03753 47.4939 3.47102 46.8416 2.31472 45.6853C1.15839 44.5289 0.506081 42.9624 0.5 41.3271V12C0.5 10.223 1.20589 8.51888 2.46238 7.26238C3.71888 6.00589 5.42305 5.3 7.2 5.3H26.4C26.9039 5.3 27.3872 5.50018 27.7435 5.8565C28.0998 6.21282 28.3 6.69609 28.3 7.2C28.3 7.70391 28.0998 8.18718 27.7435 8.5435C27.3872 8.89982 26.9039 9.1 26.4 9.1H7.2C6.43087 9.1 5.69325 9.40553 5.14939 9.94939C4.60554 10.4932 4.3 11.2309 4.3 12V25.464V26.6769L5.15474 25.8164L8.70415 22.243C8.70461 22.2425 8.70506 22.2421 8.70551 22.2416C9.86591 21.0911 11.4339 20.4455 13.068 20.4455C14.7023 20.4455 16.2704 21.0912 17.4308 22.2419C17.4312 22.2423 17.4315 22.2426 17.4319 22.243L23.3817 28.2168L23.7378 28.5743L24.0921 28.215L25.7702 26.5129C26.9305 25.3628 28.4982 24.7175 30.132 24.7175C31.7663 24.7175 33.3345 25.3632 34.4949 26.514C34.4952 26.5143 34.4955 26.5146 34.4959 26.5149L38.0464 30.0656L38.9 30.9191V29.712V21.6C38.9 21.0961 39.1002 20.6128 39.4565 20.2565C39.8128 19.9002 40.2961 19.7 40.8 19.7V19.7001L40.81 19.6999C41.0627 19.6948 41.3139 19.7403 41.5488 19.8335C41.7837 19.9267 41.9977 20.0658 42.1781 20.2428C42.3586 20.4197 42.502 20.6309 42.5998 20.8639C42.6977 21.0969 42.7481 21.3472 42.748 21.5999V21.6L42.748 41.352L42.748 41.3542C42.7537 42.684 42.323 43.9791 41.5219 45.0406C40.7207 46.1021 39.5934 46.8714 38.313 47.2306L38.313 47.2305L38.3051 47.2328C37.7275 47.4051 37.1286 47.495 36.5259 47.5ZM36.5259 47.5H36.528V48M36.5259 47.5C36.5253 47.5 36.5246 47.5 36.524 47.5L36.528 48M36.528 48C37.1784 47.9948 37.8247 47.8979 38.448 47.712M36.528 48H6.672C4.90442 47.9937 3.21104 47.2887 1.96117 46.0388C0.711295 44.789 0.00632413 43.0956 0 41.328L38.448 47.712M38.448 47.712C39.8339 47.3233 41.0539 46.4906 41.921 45.3418C42.788 44.1929 43.2542 42.7913 43.248 41.352L38.448 47.712ZM4.44645 31.8784L4.3 32.0249V32.232V40.8C4.3 41.5691 4.60554 42.3068 5.14939 42.8506C5.69325 43.3945 6.43087 43.7 7.2 43.7H32.304H33.5123L32.6573 42.8462L14.7293 24.9422L14.7286 24.9415C14.2841 24.4995 13.6828 24.2514 13.056 24.2514C12.4292 24.2514 11.8279 24.4995 11.3834 24.9415L11.3824 24.9424L4.44645 31.8784ZM38.8997 40.8166L38.9 40.8083V40.8V36.504V36.2979L38.7548 36.1517L31.8211 29.1701C31.8207 29.1696 31.8202 29.1691 31.8197 29.1686C31.6014 28.9462 31.341 28.7694 31.0536 28.6487C30.7656 28.5277 30.4564 28.4653 30.144 28.4653C29.8316 28.4653 29.5224 28.5277 29.2344 28.6487C28.9478 28.7691 28.688 28.9452 28.4701 29.1668L26.769 30.8439L26.4112 31.1967L26.7657 31.5528L37.6137 42.4488L38.0353 42.8722L38.3777 42.3826C38.6998 41.9222 38.8811 41.3781 38.8997 40.8166ZM42.7 4.8V5.3H43.2H45.6C46.1039 5.3 46.5872 5.50018 46.9435 5.8565C47.2998 6.21282 47.5 6.69609 47.5 7.2C47.5 7.70391 47.2998 8.18718 46.9435 8.5435C46.5872 8.89982 46.1039 9.1 45.6 9.1H43.2H42.7V9.6V12C42.7 12.5039 42.4998 12.9872 42.1435 13.3435C41.7872 13.6998 41.3039 13.9 40.8 13.9C40.2961 13.9 39.8128 13.6998 39.4565 13.3435C39.1002 12.9872 38.9 12.5039 38.9 12V9.6V9.1H38.4H36C35.4961 9.1 35.0128 8.89982 34.6565 8.5435C34.3002 8.18718 34.1 7.70391 34.1 7.2C34.1 6.69609 34.3002 6.21282 34.6565 5.8565C35.0128 5.50018 35.4961 5.3 36 5.3H38.4H38.9V4.8V2.4C38.9 1.89609 39.1002 1.41282 39.4565 1.0565C39.8128 0.700178 40.2961 0.5 40.8 0.5C41.3039 0.5 41.7872 0.700178 42.1435 1.0565C42.4998 1.41282 42.7 1.89609 42.7 2.4V4.8Z" fill="#C0C0C0" stroke="#F7F7F7"/>
</svg>
