<svg width="18" height="18" viewBox="0 0 18 18" fill="none" xmlns="http://www.w3.org/2000/svg">
<path d="M7.38895 11.475C7.47261 11.5594 7.57215 11.6263 7.68183 11.672C7.7915 11.7177 7.90914 11.7412 8.02795 11.7412C8.14676 11.7412 8.26439 11.7177 8.37407 11.672C8.48374 11.6263 8.58328 11.5594 8.66695 11.475L12.3389 7.80302C12.5084 7.63355 12.6036 7.40369 12.6036 7.16402C12.6036 6.92435 12.5084 6.69449 12.3389 6.52502C12.1695 6.35555 11.9396 6.26034 11.6999 6.26034C11.4603 6.26034 11.2304 6.35555 11.0609 6.52502L8.02795 9.56702L6.93895 8.46902C6.76947 8.29955 6.53962 8.20434 6.29995 8.20434C6.06028 8.20434 5.83042 8.29955 5.66095 8.46902C5.49147 8.63849 5.39626 8.86835 5.39626 9.10802C5.39626 9.34769 5.49147 9.57755 5.66095 9.74702L7.38895 11.475Z" fill="#262626"/>
<path fill-rule="evenodd" clip-rule="evenodd" d="M0 5.4C0 2.41766 2.41766 0 5.4 0H12.6C15.5823 0 18 2.41766 18 5.4V12.6C18 15.5823 15.5823 18 12.6 18H5.4C2.41766 18 0 15.5823 0 12.6V5.4ZM5.4 1.8C3.41177 1.8 1.8 3.41177 1.8 5.4V12.6C1.8 14.5882 3.41177 16.2 5.4 16.2H12.6C14.5882 16.2 16.2 14.5882 16.2 12.6V5.4C16.2 3.41177 14.5882 1.8 12.6 1.8H5.4Z" fill="#262626"/>
</svg>
