<svg width="18" height="18" viewBox="0 0 18 18" fill="none" xmlns="http://www.w3.org/2000/svg">
<path fill-rule="evenodd" clip-rule="evenodd" d="M5.4 0C2.41766 0 0 2.41766 0 5.4V12.6C0 15.5823 2.41766 18 5.4 18H12.6C15.5823 18 18 15.5823 18 12.6V5.4C18 2.41766 15.5823 0 12.6 0H5.4ZM7.6818 11.6721C7.57213 11.6264 7.47259 11.5594 7.38892 11.4751L5.66092 9.74706C5.49145 9.57758 5.39624 9.34773 5.39624 9.10806C5.39624 8.86839 5.49145 8.63853 5.66092 8.46906C5.8304 8.29958 6.06025 8.20438 6.29992 8.20438C6.53959 8.20438 6.76945 8.29958 6.93892 8.46906L8.02792 9.56706L11.0609 6.52506C11.2304 6.35558 11.4603 6.26038 11.6999 6.26038C11.9396 6.26038 12.1694 6.35558 12.3389 6.52506C12.5084 6.69453 12.6036 6.92439 12.6036 7.16406C12.6036 7.40373 12.5084 7.63358 12.3389 7.80306L8.66692 11.4751C8.58326 11.5594 8.48371 11.6264 8.37404 11.6721C8.26437 11.7178 8.14673 11.7413 8.02792 11.7413C7.90911 11.7413 7.79148 11.7178 7.6818 11.6721Z" fill="#262626"/>
</svg>
