<svg width="8" height="5" viewBox="0 0 8 5" fill="none" xmlns="http://www.w3.org/2000/svg">
<path d="M7.77552 0.220682C7.63333 0.0793364 7.44099 0 7.2405 0C7.04001 0 6.84766 0.0793364 6.70547 0.220682L3.98103 2.90718L1.29453 0.220682C1.15234 0.0793364 0.959994 0 0.759504 0C0.559014 0 0.36667 0.0793364 0.224481 0.220682C0.15335 0.291231 0.0968926 0.375166 0.0583643 0.467645C0.0198361 0.560124 0 0.659316 0 0.7595C0 0.859683 0.0198361 0.958876 0.0583643 1.05135C0.0968926 1.14383 0.15335 1.22777 0.224481 1.29832L3.44221 4.51605C3.51276 4.58718 3.59669 4.64363 3.68917 4.68216C3.78165 4.72069 3.88084 4.74053 3.98103 4.74053C4.08121 4.74053 4.1804 4.72069 4.27288 4.68216C4.36536 4.64363 4.4493 4.58718 4.51985 4.51605L7.77552 1.29832C7.84665 1.22777 7.90311 1.14383 7.94163 1.05135C7.98016 0.958876 8 0.859683 8 0.7595C8 0.659316 7.98016 0.560124 7.94163 0.467645C7.90311 0.375166 7.84665 0.291231 7.77552 0.220682Z" fill="#1B1B1B" fill-opacity="0.5"/>
</svg>
