<svg width="38" height="38" viewBox="0 0 38 38" fill="none" xmlns="http://www.w3.org/2000/svg">
<path fill-rule="evenodd" clip-rule="evenodd" d="M22 3V16H35C35.7956 16 36.5587 16.3161 37.1213 16.8787C37.6839 17.4413 38 18.2043 38 19C38 19.7957 37.6839 20.5587 37.1213 21.1213C36.5587 21.6839 35.7956 22 35 22H22V35C22 35.7957 21.6839 36.5587 21.1213 37.1213C20.5587 37.6839 19.7957 38 19 38C18.2043 38 17.4413 37.6839 16.8787 37.1213C16.3161 36.5587 16 35.7957 16 35V22H2.99999C2.20434 22 1.44128 21.6839 0.878675 21.1213C0.316071 20.5587 0 19.7957 0 19C0 18.2043 0.316071 17.4413 0.878673 16.8787C1.44129 16.3161 2.20435 16 2.99999 16H16V3C16 2.20434 16.3161 1.44128 16.8787 0.87868C17.4413 0.316075 18.2043 0 19 0C19.7957 0 20.5587 0.316069 21.1213 0.87868C21.6839 1.44128 22 2.20434 22 3Z" fill="white" fill-opacity="0.5"/>
</svg>
